<svg xmlns="http://www.w3.org/2000/svg" viewBox="0, 0, 739.32, 516.45" font-family="SauceCodePro Nerd Font, Source Code Pro, Courier" font-size="14"><g fill="#D3D3D3"><rect x="0" y="0" width="739.32" height="516.45" fill="#000000"/><path d="M0,35.5146875 L84.013671875,35.5146875 Z" stroke="#D3D3D3"/><text x="0" y="33.55" font-weight="bold">node-login</text><text x="16.8" y="71.55">  A template for quickly building login systems on top of Node.js &#x26; MongoDb </text><path d="M0,111.5146875 L58.8095703125,111.5146875 Z" stroke="#D3D3D3"/><text x="0" y="109.55" font-weight="bold">Options</text><text x="16.8" y="147.55" font-weight="bold">--NL_EMAIL_HOST</text><path d="M151.224609375,149.5146875 L201.6328125,149.5146875 Z" stroke="#D3D3D3"/><text x="151.22" y="147.55">string</text><text x="16.8" y="166.55" font-weight="bold">--NL_EMAIL_USER</text><path d="M151.224609375,168.5146875 L201.6328125,168.5146875 Z" stroke="#D3D3D3"/><text x="151.22" y="166.55">string</text><text x="16.8" y="185.55" font-weight="bold">--NL_EMAIL_PASS</text><path d="M151.224609375,187.5146875 L201.6328125,187.5146875 Z" stroke="#D3D3D3"/><text x="151.22" y="185.55">string</text><text x="16.8" y="204.55" font-weight="bold">-f</text><text x="33.61" y="204.55">, </text><text x="50.41" y="204.55" font-weight="bold">--NL_EMAIL_FROM</text><path d="M184.830078125,206.5146875 L235.23828125,206.5146875 Z" stroke="#D3D3D3"/><text x="184.83" y="204.55">string</text><text x="16.8" y="223.55" font-weight="bold">--NL_SITE_URL</text><path d="M134.421875,225.5146875 L184.830078125,225.5146875 Z" stroke="#D3D3D3"/><text x="134.42" y="223.55">string</text><text x="16.8" y="242.55" font-weight="bold">--secret</text><path d="M92.4150390625,244.5146875 L142.8232421875,244.5146875 Z" stroke="#D3D3D3"/><text x="92.42" y="242.55">string</text><text x="16.8" y="261.55" font-weight="bold">-c</text><text x="33.61" y="261.55">, </text><text x="50.41" y="261.55" font-weight="bold">--config</text><path d="M126.0205078125,263.5146875 L176.4287109375,263.5146875 Z" stroke="#D3D3D3"/><text x="126.02" y="261.55">string</text><text x="260.44" y="261.55">          Used to set config; of lower priority than CLI arguments </text><text x="16.8" y="280.55" font-weight="bold">-l</text><text x="33.61" y="280.55">, </text><text x="50.41" y="280.55" font-weight="bold">--logging</text><text x="16.8" y="299.55" font-weight="bold">--countries</text><path d="M117.619140625,301.5146875 L168.02734375,301.5146875 Z" stroke="#D3D3D3"/><text x="117.62" y="299.55">string</text><text x="16.8" y="318.55" font-weight="bold">--PORT</text><path d="M75.6123046875,320.5146875 L126.0205078125,320.5146875 Z" stroke="#D3D3D3"/><text x="75.61" y="318.55">number</text><text x="16.8" y="337.55" font-weight="bold">-n</text><text x="33.61" y="337.55">, </text><text x="50.41" y="337.55" font-weight="bold">--DB_NAME</text><path d="M134.421875,339.5146875 L184.830078125,339.5146875 Z" stroke="#D3D3D3"/><text x="134.42" y="337.55">string</text><text x="16.8" y="356.55" font-weight="bold">-t</text><text x="33.61" y="356.55">, </text><text x="50.41" y="356.55" font-weight="bold">--DB_HOST</text><path d="M134.421875,358.5146875 L184.830078125,358.5146875 Z" stroke="#D3D3D3"/><text x="134.42" y="356.55">string</text><text x="16.8" y="375.55" font-weight="bold">-p</text><text x="33.61" y="375.55">, </text><text x="50.41" y="375.55" font-weight="bold">--DB_PORT</text><path d="M134.421875,377.5146875 L184.830078125,377.5146875 Z" stroke="#D3D3D3"/><text x="134.42" y="375.55">number</text><text x="16.8" y="394.55" font-weight="bold">-u</text><text x="33.61" y="394.55">, </text><text x="50.41" y="394.55" font-weight="bold">--DB_USER</text><path d="M134.421875,396.5146875 L184.830078125,396.5146875 Z" stroke="#D3D3D3"/><text x="134.42" y="394.55">string</text><text x="16.8" y="413.55" font-weight="bold">-x</text><text x="33.61" y="413.55">, </text><text x="50.41" y="413.55" font-weight="bold">--DB_PASS</text><path d="M134.421875,415.5146875 L184.830078125,415.5146875 Z" stroke="#D3D3D3"/><text x="134.42" y="413.55">string</text><text x="16.8" y="432.55" font-weight="bold">-d</text><text x="33.61" y="432.55">, </text><text x="50.41" y="432.55" font-weight="bold">--JS_DIR</text><path d="M126.0205078125,434.5146875 L176.4287109375,434.5146875 Z" stroke="#D3D3D3"/><text x="126.02" y="432.55">string</text><text x="16.8" y="451.55" font-weight="bold">-s</text><text x="33.61" y="451.55">, </text><text x="50.41" y="451.55" font-weight="bold">--SERVE_COVERAGE</text><text x="16.8" y="470.55" font-weight="bold">-v</text><text x="33.61" y="470.55">, </text><text x="50.41" y="470.55" font-weight="bold">--version</text><text x="16.8" y="489.55" font-weight="bold">-h</text><text x="33.61" y="489.55">, </text><text x="50.41" y="489.55" font-weight="bold">--help</text></g></svg>